<svg xmlns="http://www.w3.org/2000/svg" width="24" height="27.627" viewBox="0 0 24 27.627">
  <g id="ic_category" transform="translate(-16 -16)">
    <path id="Image" d="M12,24A12,12,0,1,0,0,12,12.035,12.035,0,0,0,12,24Z" transform="translate(16 16)" fill="#eed29d"/>
    <g id="list" transform="translate(-50.5 22.221)">
      <g id="Group_92" data-name="Group 92" transform="translate(72.5)">
        <path id="Path_185" data-name="Path 185" d="M78.068,176.4H72.932a.431.431,0,0,0-.432.432v5.135a.431.431,0,0,0,.432.432h5.135a.431.431,0,0,0,.432-.432v-5.135A.431.431,0,0,0,78.068,176.4Zm-.432,5.135H73.365v-4.271h4.271Z" transform="translate(-72.5 -168.697)" fill="#91300e"/>
        <path id="Path_186" data-name="Path 186" d="M72.932,39.935h5.135A.431.431,0,0,0,78.5,39.5V37.367h8.642a.431.431,0,0,0,.432-.432v-15.5A.431.431,0,0,0,87.142,21H81.675l.891-.891a.432.432,0,0,0-.611-.611l-1.629,1.629a.43.43,0,0,0,0,.611l1.629,1.629a.432.432,0,0,0,.611,0,.43.43,0,0,0,0-.611l-.891-.891H86.71V36.5H78.5V34.367a.431.431,0,0,0-.432-.432H72.932a.431.431,0,0,0-.432.432V39.5A.436.436,0,0,0,72.932,39.935Zm.432-5.135h4.271v4.271H73.365Z" transform="translate(-72.5 -18.529)" fill="#91300e"/>
        <path id="Path_187" data-name="Path 187" d="M78.5.432A.431.431,0,0,0,78.068,0H72.932A.431.431,0,0,0,72.5.432V5.568A.431.431,0,0,0,72.932,6h5.135a.431.431,0,0,0,.432-.432V.432Zm-.865,4.7H73.365V.865h4.271Z" transform="translate(-72.5 0)" fill="#d89618"/>
      </g>
    </g>
  </g>
</svg>
