<svg xmlns="http://www.w3.org/2000/svg" width="24" height="24.293" viewBox="0 0 24 24.293">
  <g id="ic_created_date" transform="translate(-16 -16)">
    <path id="Image" d="M12,24A12,12,0,1,0,0,12,12.035,12.035,0,0,0,12,24Z" transform="translate(16 16)" fill="#eed29d"/>
    <g id="calendar-daily-page-on-day-31" transform="translate(11.869 25)">
      <g id="Group_86" data-name="Group 86" transform="translate(9.131)">
        <path id="Path_85" data-name="Path 85" d="M23.413,22.765v-2.3a2.316,2.316,0,0,0-2.362-2.193h0V18.8h0v.53h0v.3a1.4,1.4,0,0,1-2.81,0V18.265H14.258v1.362a1.4,1.4,0,0,1-2.81,0V18.8h0v-.527h0a2.311,2.311,0,0,0-2.317,2.19v9.617A2.43,2.43,0,0,0,11.562,32.5h9.42a2.43,2.43,0,0,0,2.431-2.423V22.765Z" transform="translate(-9.131 -17.208)" fill="#d89618"/>
        <path id="Path_86" data-name="Path 86" d="M65.339.639V2.486a.639.639,0,1,0,1.279,0V.639a.639.639,0,1,0-1.279,0Z" transform="translate(-62.242)" fill="#91300e"/>
        <path id="Path_87" data-name="Path 87" d="M188.726,0a.639.639,0,0,0-.64.639V2.491a.64.64,0,0,0,1.279,0V.644A.64.64,0,0,0,188.726,0Z" transform="translate(-178.225 -0.005)" fill="#91300e"/>
        <path id="Path_88" data-name="Path 88" d="M71.408,126.553a2.1,2.1,0,0,0,1.634-.6,2.017,2.017,0,0,0,.552-1.4,1.55,1.55,0,0,0-.472-1.2,2.023,2.023,0,0,0-.232-.187c-.127-.085-.136-.146-.017-.239a1.415,1.415,0,0,0,.2-.189,1.382,1.382,0,0,0,.329-.936,1.552,1.552,0,0,0-.552-1.25,2.176,2.176,0,0,0-1.452-.466,2.491,2.491,0,0,0-.818.117,1.657,1.657,0,0,0-.576.338,2,2,0,0,0-.476.68,3.028,3.028,0,0,0-.138.613.248.248,0,0,0,.255.276h.6a.308.308,0,0,0,.293-.276,1.016,1.016,0,0,1,.18-.465.747.747,0,0,1,.642-.277.766.766,0,0,1,.59.225.826.826,0,0,1,.209.585.723.723,0,0,1-.41.737,1.725,1.725,0,0,1-.561.106.293.293,0,0,0-.276.287v.331a.289.289,0,0,0,.277.284,1.988,1.988,0,0,1,.622.11.808.808,0,0,1,.5.828.928.928,0,0,1-.27.717.9.9,0,0,1-.633.249.829.829,0,0,1-.817-.455,1.179,1.179,0,0,1-.1-.348.31.31,0,0,0-.3-.276h-.66a.25.25,0,0,0-.256.276,2.345,2.345,0,0,0,.282.937A1.975,1.975,0,0,0,71.408,126.553Z" transform="translate(-66.005 -113.645)" fill="#91300e"/>
        <path id="Path_89" data-name="Path 89" d="M161.079,122.56H162a.277.277,0,0,1,.277.277v3.78a.277.277,0,0,0,.277.277h.712a.277.277,0,0,0,.277-.277v-5.73a.277.277,0,0,0-.277-.277h-.478c-.153,0-.278.058-.293.127-.008.036-.018.078-.031.124a1.084,1.084,0,0,1-.242.451,1.154,1.154,0,0,1-.6.329,3.925,3.925,0,0,1-.541.063.3.3,0,0,0-.276.291v.287A.277.277,0,0,0,161.079,122.56Z" transform="translate(-152.495 -114.133)" fill="#91300e"/>
      </g>
    </g>
  </g>
</svg>
