<svg xmlns="http://www.w3.org/2000/svg" width="24.563" height="24.564" viewBox="0 0 24.563 24.564">
  <g id="ic_name" transform="translate(-18 -18.105)">
    <path id="Path_90" data-name="Path 90" d="M13.69,24.551l-3.665,2a3.293,3.293,0,0,0-.588.419,12.274,12.274,0,0,0,15.771.041,3.251,3.251,0,0,0-.646-.433l-3.924-1.962a1.5,1.5,0,0,1-.827-1.339v-1.54a5.928,5.928,0,0,0,.371-.477A9.03,9.03,0,0,0,21.4,18.8a1.233,1.233,0,0,0,.874-1.173V15.985a1.227,1.227,0,0,0-.411-.911V12.7S22.353,9,17.346,9s-4.519,3.7-4.519,3.7v2.376a1.225,1.225,0,0,0-.411.911v1.643a1.232,1.232,0,0,0,.568,1.034,8.156,8.156,0,0,0,1.486,3.074v1.5A1.5,1.5,0,0,1,13.69,24.551Z" transform="translate(12.937 12.812)" fill="#d89618"/>
    <g id="Group_87" data-name="Group 87" transform="translate(18 18.105)">
      <path id="Path_91" data-name="Path 91" d="M12.492,1a12.274,12.274,0,0,0-8.113,21.67,3.264,3.264,0,0,1,.583-.414l3.665-2a1.5,1.5,0,0,0,.78-1.314v-1.5A8.148,8.148,0,0,1,7.92,14.369a1.233,1.233,0,0,1-.568-1.034V11.692a1.227,1.227,0,0,1,.411-.911V8.405s-.488-3.7,4.519-3.7,4.519,3.7,4.519,3.7v2.376a1.225,1.225,0,0,1,.411.911v1.643a1.233,1.233,0,0,1-.874,1.173,9.03,9.03,0,0,1-1.22,2.458,5.928,5.928,0,0,1-.371.477v1.54a1.5,1.5,0,0,0,.827,1.339L19.5,22.283a3.267,3.267,0,0,1,.644.432A12.279,12.279,0,0,0,12.492,1Z" transform="translate(0 -1)" fill="#eed29d"/>
    </g>
  </g>
</svg>
