<svg xmlns="http://www.w3.org/2000/svg" width="24" height="24.193" viewBox="0 0 24 24.193">
  <g id="ic_query_directed_to" transform="translate(-16 -6)">
    <path id="Image" d="M12,24A12,12,0,1,0,0,12,12.035,12.035,0,0,0,12,24Z" transform="translate(16 6)" fill="#eed29d"/>
    <g id="woman" transform="translate(-51.259 10.732)">
      <path id="Path_198" data-name="Path 198" d="M114.065,11.1a.494.494,0,0,1,.06-.083A7.709,7.709,0,0,0,115.3,6.87c0-3.788-2.612-6.87-5.822-6.87s-5.821,3.082-5.821,6.87a7.7,7.7,0,0,0,1.2,4.183q.012.017.025.038l.077.114a.678.678,0,0,0,.772.255l.031-.011h0a8.684,8.684,0,0,1,1.273-.356l.806-.165-.608-.555a2.857,2.857,0,0,1-.906-1.722l-.045-.333-.335-.027a1.073,1.073,0,0,1-.022-2.136l.37-.038.005-.294a8.217,8.217,0,0,0,3.169-1.77,5.845,5.845,0,0,0,3.185,1.776l0,.288.37.038a1.073,1.073,0,0,1-.022,2.136l-.335.027-.045.333a2.857,2.857,0,0,1-.906,1.722l-.608.555.806.165a8.6,8.6,0,0,1,1.324.376A.7.7,0,0,0,114.065,11.1Z" transform="translate(-30.208)" fill="#91300e"/>
      <path id="Path_199" data-name="Path 199" d="M179.094,287.921V286.4l-.524.137a2.855,2.855,0,0,1-.721.092h-.642a2.853,2.853,0,0,1-.726-.094l-.525-.138v1.522l-1.561.374.34,1.212.141.086a5.3,5.3,0,0,0,1.569.617,5.174,5.174,0,0,0,1.1.122h0a5.154,5.154,0,0,0,2.626-.741l.146-.085.333-1.19Z" transform="translate(-98.254 -275.512)" fill="#fbcb99"/>
      <path id="Path_200" data-name="Path 200" d="M176.947,290.208a5.3,5.3,0,0,1-1.569-.617h0l-.334-1.227,1.28-.308V286.59l-.367-.193v1.522l-1.561.374.34,1.212.141.086a5.3,5.3,0,0,0,1.569.617,5.174,5.174,0,0,0,1.1.122h0c.082,0,.164,0,.246-.007A5.237,5.237,0,0,1,176.947,290.208Z" transform="translate(-98.254 -275.511)" fill="#edba89"/>
      <path id="Path_201" data-name="Path 201" d="M190.876,368.02a4.95,4.95,0,0,1-3.163.332,5.309,5.309,0,0,1-.989-.327l-.612-.272,1.547,5.471h2.281l1.551-5.483Z" transform="translate(-109.527 -353.764)" fill="#f5f5f7"/>
      <path id="Path_202" data-name="Path 202" d="M186.111,368.068l1.547,5.471h.5l-1.475-5.216Z" transform="translate(-109.525 -354.078)" fill="#d2d2d7"/>
      <g id="Group_97" data-name="Group 97" transform="translate(72.259 12.718)">
        <path id="Path_203" data-name="Path 203" d="M285.071,335.526a5.918,5.918,0,0,0-.617-.3l-.1-.041a15.031,15.031,0,0,0-1.814-.587l-1.889,6.743h5.331a.677.677,0,0,0,.716-.693v-2.01A3.578,3.578,0,0,0,285.071,335.526Z" transform="translate(-272.731 -334.597)" fill="#f6c465"/>
        <path id="Path_204" data-name="Path 204" d="M76.417,334.6a15.032,15.032,0,0,0-1.814.587l-.1.041a5.909,5.909,0,0,0-.617.3,3.578,3.578,0,0,0-1.628,3.111v2.01a.677.677,0,0,0,.716.693h5.331Z" transform="translate(-72.259 -334.598)" fill="#f6c465"/>
      </g>
      <g id="Group_98" data-name="Group 98" transform="translate(72.259 12.717)">
        <path id="Path_205" data-name="Path 205" d="M72.952,340.646v-2.01a3.578,3.578,0,0,1,1.628-3.111,5.909,5.909,0,0,1,.617-.3l.1-.042c.4-.162.815-.3,1.173-.408l-.05-.179a15.037,15.037,0,0,0-1.814.587l-.1.042a5.9,5.9,0,0,0-.617.3,3.578,3.578,0,0,0-1.628,3.111v2.01a.676.676,0,0,0,.691.692Z" transform="translate(-72.261 -334.596)" fill="#d6a953"/>
        <path id="Path_206" data-name="Path 206" d="M364.543,434.18v-2.761a.314.314,0,1,0-.628,0v2.761Z" transform="translate(-352.83 -427.437)" fill="#d6a953"/>
        <path id="Path_207" data-name="Path 207" d="M131.235,434.18v-2.761a.314.314,0,1,0-.628,0v2.761Z" transform="translate(-128.389 -427.437)" fill="#d6a953"/>
      </g>
      <path id="Path_208" data-name="Path 208" d="M337.7,154.628a.555.555,0,0,0-.721.53v1.582a.556.556,0,0,0,.555.555.549.549,0,0,0,.165-.025,1.378,1.378,0,0,0,.311-.142,2.762,2.762,0,0,1,.314-.263,1.382,1.382,0,0,0-.624-2.237Z" transform="translate(-254.658 -148.726)" fill="#fbcb99"/>
      <path id="Path_209" data-name="Path 209" d="M133.437,154.709a.556.556,0,0,0-.494-.083,1.384,1.384,0,0,0,0,2.643.555.555,0,0,0,.721-.53v-1.583A.555.555,0,0,0,133.437,154.709Z" transform="translate(-57.441 -148.725)" fill="#edba89"/>
      <path id="Path_210" data-name="Path 210" d="M174.528,106.427a.215.215,0,0,0,0-.03v-.028a.279.279,0,0,0-.171-.242l-.15-.036a5.629,5.629,0,0,1-2.735-1.473h0a.534.534,0,0,0-.714,0h0a8.02,8.02,0,0,1-2.708,1.464l-.066.021h0a.3.3,0,0,0-.227.238v2.426a3.068,3.068,0,0,0,3.064,3.064h.642a3.067,3.067,0,0,0,3.064-3.064v-2.342Z" transform="translate(-91.872 -100.505)" fill="#fbcb99"/>
      <g id="Group_99" data-name="Group 99" transform="translate(75.889 3.971)">
        <path id="Path_211" data-name="Path 211" d="M171.359,104.542a.554.554,0,0,0-.6.084h0a8.02,8.02,0,0,1-2.708,1.464l-.066.021h0a.3.3,0,0,0-.226.238v2.426a3.068,3.068,0,0,0,3.064,3.064h.5a3.068,3.068,0,0,1-3.064-3.064v-2.249a.47.47,0,0,1,.319-.444l.079-.026h0a7.864,7.864,0,0,0,2.683-1.5Z" transform="translate(-167.761 -104.484)" fill="#edba89"/>
        <path id="Path_212" data-name="Path 212" d="M245.074,189.949a.209.209,0,1,1,0,.418h-.535a.209.209,0,0,1-.209-.209v-1.02a.209.209,0,1,1,.418,0v.811Z" transform="translate(-241.42 -185.719)" fill="#edba89"/>
      </g>
      <path id="Path_213" data-name="Path 213" d="M104.89,11.091l.077.114a.679.679,0,0,0,.784.251l.019-.007-.05-.068a7.623,7.623,0,0,1-1.43-4.51c0-3.664,2.443-6.667,5.508-6.86-.1-.006-.209-.01-.314-.01-3.21,0-5.821,3.082-5.821,6.87a7.7,7.7,0,0,0,1.2,4.183C104.873,11.065,104.881,11.077,104.89,11.091Z" transform="translate(-30.208 0)" fill="#5e1c06"/>
    </g>
  </g>
</svg>
