<svg xmlns="http://www.w3.org/2000/svg" width="14.091" height="14.094" viewBox="0 0 14.091 14.094">
  <g id="cancel" transform="translate(0.143 -0.389)">
    <ellipse id="Ellipse_60" data-name="Ellipse 60" cx="7.045" cy="6.989" rx="7.045" ry="6.989" transform="translate(-0.143 0.389)" fill="#e24c4b"/>
    <path id="Path_36" data-name="Path 36" d="M62.223,55.252a7.017,7.017,0,0,1-6.987,7.006,6.869,6.869,0,0,1-5.459-2.627,6.882,6.882,0,0,0,4.367,1.533,7.017,7.017,0,0,0,6.987-7.006A6.924,6.924,0,0,0,59.6,49.779,6.9,6.9,0,0,1,62.223,55.252Z" transform="translate(-48.275 -47.775)" fill="#d1403f"/>
    <path id="Path_37" data-name="Path 37" d="M123.831,124.63a.626.626,0,0,1-.95,0l-2.2-2.472-2.2,2.472a.626.626,0,0,1-.95,0,.829.829,0,0,1,0-1.066l2.2-2.472-2.2-2.472a.829.829,0,0,1,0-1.067.626.626,0,0,1,.95,0l2.2,2.472,2.2-2.472a.626.626,0,0,1,.95,0,.829.829,0,0,1,0,1.067l-2.2,2.472,2.2,2.472A.829.829,0,0,1,123.831,124.63Z" transform="translate(-113.871 -113.838)" fill="#fff"/>
  </g>
</svg>
