<svg id="Group_29" data-name="Group 29" xmlns="http://www.w3.org/2000/svg" width="14" height="14" viewBox="0 0 14 14">
  <path id="Path_46" data-name="Path 46" d="M7,0A7,7,0,1,1,0,7,7,7,0,0,1,7,0Z" fill="#f6f6f6"/>
  <path id="circle" d="M5.581,10.852a.362.362,0,0,1-.011-.724c.057,0,.114,0,.17-.008a.358.358,0,0,1,.384.339.362.362,0,0,1-.339.384l-.193.009ZM4.5,10.767a.365.365,0,0,1-.067-.006q-.1-.018-.192-.04a.362.362,0,0,1,.161-.706c.054.012.109.024.164.034a.362.362,0,0,1-.066.718Zm2.342-.106a.362.362,0,0,1-.1-.711c.054-.015.108-.032.161-.049a.362.362,0,1,1,.224.689q-.093.03-.187.057A.364.364,0,0,1,6.837,10.661Zm-3.552-.283a.365.365,0,0,1-.153-.034q-.089-.042-.176-.086a.362.362,0,1,1,.331-.644c.05.026.1.05.152.074a.362.362,0,0,1-.154.69Zm4.721-.217a.362.362,0,0,1-.183-.675q.073-.042.143-.088a.362.362,0,1,1,.389.611c-.055.035-.11.069-.167.1A.363.363,0,0,1,8.006,10.161ZM2.211,9.7a.361.361,0,0,1-.23-.083c-.05-.041-.1-.084-.148-.127a.362.362,0,1,1,.482-.541c.042.037.085.074.128.11a.362.362,0,0,1-.231.641Zm6.8-.312a.362.362,0,0,1-.255-.619c.04-.04.079-.081.118-.122a.362.362,0,0,1,.528.5q-.066.071-.135.139A.36.36,0,0,1,9.012,9.387ZM1.34,8.773a.361.361,0,0,1-.293-.149c-.038-.053-.076-.106-.112-.16a.362.362,0,1,1,.6-.405q.047.07.1.138a.362.362,0,0,1-.292.575Zm8.454-.387a.362.362,0,0,1-.311-.547c.029-.049.057-.1.084-.147a.362.362,0,0,1,.635.349q-.047.086-.1.169A.363.363,0,0,1,9.795,8.386ZM.727,7.661A.362.362,0,0,1,.39,7.432c-.024-.06-.047-.121-.069-.182A.362.362,0,1,1,1,7.007c.019.053.039.106.059.158a.363.363,0,0,1-.337.5ZM10.3,7.222a.363.363,0,0,1-.348-.464c.016-.054.031-.109.045-.164a.362.362,0,0,1,.7.179c-.016.063-.033.125-.051.187A.362.362,0,0,1,10.3,7.222ZM.41,6.43a.362.362,0,0,1-.359-.316c-.008-.065-.015-.13-.021-.2A.362.362,0,0,1,.36,5.527a.358.358,0,0,1,.392.329c0,.056.011.112.018.167a.362.362,0,0,1-.314.4A.368.368,0,0,1,.41,6.43Zm10.1-.463h-.013a.362.362,0,0,1-.349-.375c0-.056,0-.113,0-.169V5.4a.362.362,0,1,1,.724,0v.02c0,.065,0,.13,0,.195A.362.362,0,0,1,10.506,5.967ZM.409,5.16l-.045,0a.362.362,0,0,1-.315-.4c.008-.064.017-.129.027-.192a.362.362,0,0,1,.715.112c-.009.056-.017.112-.024.168A.362.362,0,0,1,.409,5.16Zm9.98-.478a.362.362,0,0,1-.353-.284c-.012-.055-.025-.11-.039-.164a.362.362,0,1,1,.7-.182c.016.063.032.126.046.19a.362.362,0,0,1-.276.431A.387.387,0,0,1,10.389,4.681ZM.719,3.928A.357.357,0,0,1,.587,3.9a.362.362,0,0,1-.2-.469q.036-.092.075-.181a.362.362,0,1,1,.664.29q-.034.077-.064.156A.363.363,0,0,1,.719,3.928Zm9.242-.442a.361.361,0,0,1-.324-.2q-.038-.075-.078-.147a.362.362,0,1,1,.633-.352c.032.057.062.115.092.173a.362.362,0,0,1-.323.525ZM1.329,2.812a.362.362,0,0,1-.293-.574q.057-.079.118-.157a.362.362,0,0,1,.57.446q-.052.067-.1.135A.362.362,0,0,1,1.329,2.812Zm7.92-.378a.361.361,0,0,1-.272-.123q-.056-.063-.113-.124a.362.362,0,1,1,.525-.5c.045.047.089.1.132.145a.362.362,0,0,1-.272.6ZM2.2,1.884a.362.362,0,0,1-.232-.641c.05-.041.1-.082.152-.121a.362.362,0,1,1,.444.572q-.067.052-.132.106A.362.362,0,0,1,2.2,1.884Zm6.1-.291a.36.36,0,0,1-.2-.063q-.07-.048-.141-.092A.362.362,0,0,1,8.337.824Q8.42.876,8.5.932a.362.362,0,0,1-.2.661ZM3.267,1.2a.362.362,0,0,1-.155-.69c.058-.028.118-.054.177-.08a.362.362,0,1,1,.286.665q-.077.033-.154.07A.362.362,0,0,1,3.267,1.2Zm3.9-.186A.358.358,0,0,1,7.042.994L6.881.939A.362.362,0,1,1,7.1.249c.062.02.124.041.185.063a.362.362,0,0,1-.122.7ZM4.474.807A.362.362,0,0,1,4.407.089C4.47.077,4.535.066,4.6.056a.362.362,0,0,1,.11.716L4.542.8A.364.364,0,0,1,4.474.807ZM5.924.738l-.034,0C5.834.731,5.778.727,5.722.724A.362.362,0,0,1,5.764,0c.065,0,.13.009.194.015a.362.362,0,0,1-.033.723Z" transform="translate(1.712 1.741)"/>
</svg>
