<svg xmlns="http://www.w3.org/2000/svg" width="29.074" height="27.627" viewBox="0 0 29.074 27.627">
  <g id="ic_sub_sub_category" transform="translate(-13 -16)">
    <path id="Image" d="M12,24A12,12,0,1,0,0,12,12.035,12.035,0,0,0,12,24Z" transform="translate(16 16)" fill="#eed29d"/>
    <g id="Group_101" data-name="Group 101" transform="translate(0 60)">
      <g id="list" transform="translate(-50.5 -37.779)">
        <g id="Group_92" data-name="Group 92" transform="translate(63.5)">
          <path id="Path_185" data-name="Path 185" d="M78.068,176.4H72.932a.431.431,0,0,0-.432.432v5.135a.431.431,0,0,0,.432.432h5.135a.431.431,0,0,0,.432-.432v-5.135A.431.431,0,0,0,78.068,176.4Zm-.432,5.135H73.365v-4.271h4.271Z" transform="translate(-72.5 -168.697)" fill="#91300e"/>
          <path id="Path_186" data-name="Path 186" d="M72.932,39.935h5.135A.431.431,0,0,0,78.5,39.5V37.367h8.642a.431.431,0,0,0,.432-.432v-15.5A.431.431,0,0,0,87.142,21H81.675l.891-.891a.432.432,0,0,0-.611-.611l-1.629,1.629a.43.43,0,0,0,0,.611l1.629,1.629a.432.432,0,0,0,.611,0,.43.43,0,0,0,0-.611l-.891-.891H86.71V36.5H78.5V34.367a.431.431,0,0,0-.432-.432H72.932a.431.431,0,0,0-.432.432V39.5A.436.436,0,0,0,72.932,39.935Zm.432-5.135h4.271v4.271H73.365Z" transform="translate(-72.5 -18.529)" fill="#91300e"/>
          <path id="Path_187" data-name="Path 187" d="M78.5.432A.431.431,0,0,0,78.068,0H72.932A.431.431,0,0,0,72.5.432V5.568A.431.431,0,0,0,72.932,6h5.135a.431.431,0,0,0,.432-.432V.432Zm-.865,4.7H73.365V.865h4.271Z" transform="translate(-72.5 0)" fill="#d89618"/>
        </g>
      </g>
      <g id="list-2" data-name="list" transform="translate(27 -37.779)">
        <g id="Group_92-2" data-name="Group 92" transform="translate(0)">
          <path id="Path_185-2" data-name="Path 185" d="M72.932,176.4h5.135a.431.431,0,0,1,.432.432v5.135a.431.431,0,0,1-.432.432H72.932a.431.431,0,0,1-.432-.432v-5.135A.431.431,0,0,1,72.932,176.4Zm.432,5.135h4.271v-4.271H73.365Z" transform="translate(-63.426 -168.697)" fill="#91300e"/>
          <path id="Path_186-2" data-name="Path 186" d="M87.142,39.935H82.007a.431.431,0,0,1-.432-.432V37.367H72.932a.431.431,0,0,1-.432-.432v-15.5A.431.431,0,0,1,72.932,21H78.4l-.891-.891a.432.432,0,0,1,.611-.611l1.629,1.629a.43.43,0,0,1,0,.611L78.12,23.372a.432.432,0,0,1-.611,0,.43.43,0,0,1,0-.611l.891-.891H73.365V36.5h8.21V34.367a.431.431,0,0,1,.432-.432h5.135a.431.431,0,0,1,.432.432V39.5A.436.436,0,0,1,87.142,39.935ZM86.71,34.8H82.439v4.271H86.71Z" transform="translate(-72.5 -18.529)" fill="#91300e"/>
          <path id="Path_187-2" data-name="Path 187" d="M72.5.432A.431.431,0,0,1,72.932,0h5.135A.431.431,0,0,1,78.5.432V5.568A.431.431,0,0,1,78.068,6H72.932a.431.431,0,0,1-.432-.432V.432Zm.865,4.7h4.271V.865H73.365Z" transform="translate(-63.426 0)" fill="#d89618"/>
        </g>
      </g>
    </g>
  </g>
</svg>
