<svg xmlns="http://www.w3.org/2000/svg" width="14" height="14" viewBox="0 0 14 14">
  <g id="Group_19" data-name="Group 19" transform="translate(-24 -282)">
    <circle id="Ellipse_65" data-name="Ellipse 65" cx="7" cy="7" r="7" transform="translate(24 282)" fill="#e4e4e4"/>
    <g id="SellingServices_TitleProcurement_Icon" transform="translate(27.661 284.094)">
      <g id="Group_17" data-name="Group 17" transform="translate(0.908 0)">
        <g id="Group_16" data-name="Group 16" transform="translate(0 0)">
          <path id="Path_42" data-name="Path 42" d="M14.962.642a.5.5,0,0,0-.5.5V6.253a.5.5,0,0,0,.5.5H18.91a.5.5,0,0,0,.5-.5V1.145a.5.5,0,0,0-.5-.5ZM18.91,7.015H14.962A.754.754,0,0,1,14.2,6.27V1.162A.769.769,0,0,1,14.962.4H18.91a.765.765,0,0,1,.762.745V6.253a.78.78,0,0,1-.762.762" transform="translate(-14.2 -0.4)" fill="#37424a"/>
          <line id="Line_1" data-name="Line 1" x2="2.009" transform="translate(2.788 1.437)" fill="none" stroke="#434343" stroke-linecap="round" stroke-miterlimit="10" stroke-width="0.4"/>
          <line id="Line_2" data-name="Line 2" x2="2.009" transform="translate(2.788 2.286)" fill="none" stroke="#434343" stroke-linecap="round" stroke-miterlimit="10" stroke-width="0.4"/>
          <line id="Line_3" data-name="Line 3" x2="4.104" transform="translate(0.693 3.134)" fill="none" stroke="#434343" stroke-linecap="round" stroke-miterlimit="10" stroke-width="0.4"/>
          <line id="Line_4" data-name="Line 4" x2="2.009" transform="translate(2.788 3.983)" fill="none" stroke="#434343" stroke-linecap="round" stroke-miterlimit="10" stroke-width="0.4"/>
          <line id="Line_5" data-name="Line 5" x2="2.32" transform="translate(2.476 4.831)" fill="none" stroke="#434343" stroke-linecap="round" stroke-miterlimit="10" stroke-width="0.4"/>
          <line id="Line_6" data-name="Line 6" x2="2.632" transform="translate(2.164 5.68)" fill="none" stroke="#434343" stroke-linecap="round" stroke-miterlimit="10" stroke-width="0.4"/>
        </g>
        <path id="Path_43" data-name="Path 43" d="M19.71,5.59l.19-.19.069.26.26-.087-.087.26.26.069-.19.19.19.19-.26.069.087.26-.26-.069L19.9,6.8l-.19-.19-.19.19-.069-.26-.26.069.069-.26L19,6.283l.208-.19L19,5.9l.26-.052-.069-.26.26.069.069-.26Z" transform="translate(-18.169 -4.534)" fill="#37424a"/>
      </g>
      <path id="Path_44" data-name="Path 44" d="M13.624,52.971H11.287a.082.082,0,0,1-.087-.087v-.4a.082.082,0,0,1,.087-.087h2.338a.082.082,0,0,1,.087.087v.4A.082.082,0,0,1,13.624,52.971Z" transform="translate(-10.811 -43.396)" fill="#37424a"/>
      <path id="Path_45" data-name="Path 45" d="M11.646,17.348c-.329-.069-.45.19-.537.364s-.4.814-.537,1.126-.519.97-.519.97-.017-1.853,0-3.307A1.573,1.573,0,0,0,9.5,17.539c-.052.173-.416,1.766-.5,2.147-.087.364-.017.416,0,.468s.571,1.489.606,1.576a.416.416,0,0,1,.035.173c0,.035-.087.45-.087.519s.035.052.087.052c0,0,1.887,0,1.939.017.035-.017.017-.052.017-.087s-.156-1.766-.156-1.766.485-2.442.537-2.667A.481.481,0,0,0,11.646,17.348Zm-1.7,4.277H9.914a.1.1,0,0,1-.087-.052l-.641-1.558v-.052l.19-.641a.082.082,0,0,1,.156.052l-.173.606L9.983,21.5A.074.074,0,0,1,9.949,21.625Z" transform="translate(-8.954 -13.712)" fill="#37424a"/>
    </g>
  </g>
</svg>
